<?xml version="1.0" standalone="no"?><!DOCTYPE svg PUBLIC "-//W3C//DTD SVG 1.1//EN" "http://www.w3.org/Graphics/SVG/1.1/DTD/svg11.dtd"><svg t="1712818006875" class="icon" viewBox="0 0 1024 1024" version="1.1" xmlns="http://www.w3.org/2000/svg" p-id="2648" xmlns:xlink="http://www.w3.org/1999/xlink" width="200" height="200"><path d="M512.4 104.6c8.2 0 16.3 2.9 22.5 8.3l341.4 288.5c17.3 14.6 12.2 33.3 10.3 38.7-2 5.4-10.2 22.9-32.8 22.9H171c-22.7 0-30.8-17.5-32.8-22.9-2-5.4-7-24.1 10.3-38.7l341.4-288.5c6.3-5.4 14.3-8.3 22.5-8.3m0-40c-17.2 0-34.4 5.9-48.4 17.7L122.7 370.8C69.4 415.9 101.2 503 171.1 503h682.8c69.8 0 101.7-87.1 48.4-132.2L560.8 82.3c-14-11.8-31.2-17.7-48.4-17.7z" fill="#ffffff" p-id="2649"></path><path d="M779.6 959.8H245.4c-28.6 0-55.3-13-75.1-36.7-19-22.7-29.4-52.6-29.4-84.2v-349c0-11 9-20 20-20s20 9 20 20v348.9c0 44.6 29 80.9 64.6 80.9h534.1c35.6 0 64.6-36.3 64.6-80.9V489.9c0-11 9-20 20-20s20 9 20 20v348.9c0 31.6-10.5 61.6-29.4 84.2-20 23.7-46.6 36.8-75.2 36.8z" fill="#ffffff" p-id="2650"></path></svg>